<mxfile host="app.diagrams.net" modified="2021-07-04T20:27:34.388Z" agent="5.0 (X11; Linux x86_64) AppleWebKit/537.36 (KHTML, like Gecko) Chrome/91.0.4472.114 Safari/537.36" etag="RqCqXQRxLa4q5Q-wYCM-" version="14.8.4" type="github">
  <diagram id="WGpfC6W8DjKB7muO9osa" name="Page-1">
    <mxGraphModel dx="970" dy="718" grid="1" gridSize="10" guides="1" tooltips="1" connect="1" arrows="1" fold="1" page="1" pageScale="1" pageWidth="827" pageHeight="1169" math="0" shadow="0">
      <root>
        <mxCell id="0" />
        <mxCell id="1" parent="0" />
        <mxCell id="akpch6v7CLm2JDNGrAS8-25" style="edgeStyle=orthogonalEdgeStyle;rounded=0;orthogonalLoop=1;jettySize=auto;html=1;exitX=0;exitY=0.5;exitDx=0;exitDy=0;entryX=0.5;entryY=0;entryDx=0;entryDy=0;" edge="1" parent="1" source="akpch6v7CLm2JDNGrAS8-1" target="akpch6v7CLm2JDNGrAS8-3">
          <mxGeometry relative="1" as="geometry" />
        </mxCell>
        <mxCell id="akpch6v7CLm2JDNGrAS8-26" style="edgeStyle=orthogonalEdgeStyle;rounded=0;orthogonalLoop=1;jettySize=auto;html=1;exitX=1;exitY=0.5;exitDx=0;exitDy=0;entryX=0.5;entryY=0;entryDx=0;entryDy=0;" edge="1" parent="1" source="akpch6v7CLm2JDNGrAS8-1" target="akpch6v7CLm2JDNGrAS8-2">
          <mxGeometry relative="1" as="geometry" />
        </mxCell>
        <mxCell id="akpch6v7CLm2JDNGrAS8-1" value="20" style="ellipse;whiteSpace=wrap;html=1;aspect=fixed;" vertex="1" parent="1">
          <mxGeometry x="440" y="70" width="40" height="40" as="geometry" />
        </mxCell>
        <mxCell id="akpch6v7CLm2JDNGrAS8-30" style="edgeStyle=orthogonalEdgeStyle;rounded=0;orthogonalLoop=1;jettySize=auto;html=1;exitX=0;exitY=0.5;exitDx=0;exitDy=0;" edge="1" parent="1" source="akpch6v7CLm2JDNGrAS8-2" target="akpch6v7CLm2JDNGrAS8-7">
          <mxGeometry relative="1" as="geometry" />
        </mxCell>
        <mxCell id="akpch6v7CLm2JDNGrAS8-31" style="edgeStyle=orthogonalEdgeStyle;rounded=0;orthogonalLoop=1;jettySize=auto;html=1;exitX=0.5;exitY=1;exitDx=0;exitDy=0;" edge="1" parent="1" source="akpch6v7CLm2JDNGrAS8-2" target="akpch6v7CLm2JDNGrAS8-8">
          <mxGeometry relative="1" as="geometry" />
        </mxCell>
        <mxCell id="akpch6v7CLm2JDNGrAS8-32" style="edgeStyle=orthogonalEdgeStyle;rounded=0;orthogonalLoop=1;jettySize=auto;html=1;exitX=1;exitY=0.5;exitDx=0;exitDy=0;" edge="1" parent="1" source="akpch6v7CLm2JDNGrAS8-2" target="akpch6v7CLm2JDNGrAS8-9">
          <mxGeometry relative="1" as="geometry" />
        </mxCell>
        <mxCell id="akpch6v7CLm2JDNGrAS8-2" value="21" style="ellipse;whiteSpace=wrap;html=1;aspect=fixed;" vertex="1" parent="1">
          <mxGeometry x="560" y="160" width="40" height="40" as="geometry" />
        </mxCell>
        <mxCell id="akpch6v7CLm2JDNGrAS8-27" style="edgeStyle=orthogonalEdgeStyle;rounded=0;orthogonalLoop=1;jettySize=auto;html=1;exitX=0;exitY=0.5;exitDx=0;exitDy=0;entryX=0.5;entryY=0;entryDx=0;entryDy=0;" edge="1" parent="1" source="akpch6v7CLm2JDNGrAS8-3" target="akpch6v7CLm2JDNGrAS8-4">
          <mxGeometry relative="1" as="geometry" />
        </mxCell>
        <mxCell id="akpch6v7CLm2JDNGrAS8-28" style="edgeStyle=orthogonalEdgeStyle;rounded=0;orthogonalLoop=1;jettySize=auto;html=1;exitX=0.5;exitY=1;exitDx=0;exitDy=0;entryX=0.5;entryY=0;entryDx=0;entryDy=0;" edge="1" parent="1" source="akpch6v7CLm2JDNGrAS8-3" target="akpch6v7CLm2JDNGrAS8-5">
          <mxGeometry relative="1" as="geometry" />
        </mxCell>
        <mxCell id="akpch6v7CLm2JDNGrAS8-29" style="edgeStyle=orthogonalEdgeStyle;rounded=0;orthogonalLoop=1;jettySize=auto;html=1;exitX=1;exitY=0.5;exitDx=0;exitDy=0;" edge="1" parent="1" source="akpch6v7CLm2JDNGrAS8-3" target="akpch6v7CLm2JDNGrAS8-6">
          <mxGeometry relative="1" as="geometry" />
        </mxCell>
        <mxCell id="akpch6v7CLm2JDNGrAS8-3" value="10" style="ellipse;whiteSpace=wrap;html=1;aspect=fixed;" vertex="1" parent="1">
          <mxGeometry x="320" y="160" width="40" height="40" as="geometry" />
        </mxCell>
        <mxCell id="akpch6v7CLm2JDNGrAS8-33" style="edgeStyle=orthogonalEdgeStyle;rounded=0;orthogonalLoop=1;jettySize=auto;html=1;exitX=0;exitY=0.5;exitDx=0;exitDy=0;" edge="1" parent="1" source="akpch6v7CLm2JDNGrAS8-4" target="akpch6v7CLm2JDNGrAS8-19">
          <mxGeometry relative="1" as="geometry" />
        </mxCell>
        <mxCell id="akpch6v7CLm2JDNGrAS8-34" style="edgeStyle=orthogonalEdgeStyle;rounded=0;orthogonalLoop=1;jettySize=auto;html=1;exitX=0.5;exitY=1;exitDx=0;exitDy=0;" edge="1" parent="1" source="akpch6v7CLm2JDNGrAS8-4" target="akpch6v7CLm2JDNGrAS8-20">
          <mxGeometry relative="1" as="geometry" />
        </mxCell>
        <mxCell id="akpch6v7CLm2JDNGrAS8-35" style="edgeStyle=orthogonalEdgeStyle;rounded=0;orthogonalLoop=1;jettySize=auto;html=1;exitX=1;exitY=1;exitDx=0;exitDy=0;" edge="1" parent="1" source="akpch6v7CLm2JDNGrAS8-4" target="akpch6v7CLm2JDNGrAS8-21">
          <mxGeometry relative="1" as="geometry" />
        </mxCell>
        <mxCell id="akpch6v7CLm2JDNGrAS8-4" value="2" style="ellipse;whiteSpace=wrap;html=1;aspect=fixed;" vertex="1" parent="1">
          <mxGeometry x="240" y="240" width="40" height="40" as="geometry" />
        </mxCell>
        <mxCell id="akpch6v7CLm2JDNGrAS8-36" style="edgeStyle=orthogonalEdgeStyle;rounded=0;orthogonalLoop=1;jettySize=auto;html=1;exitX=0.5;exitY=1;exitDx=0;exitDy=0;entryX=0;entryY=0;entryDx=0;entryDy=0;" edge="1" parent="1" source="akpch6v7CLm2JDNGrAS8-5" target="akpch6v7CLm2JDNGrAS8-10">
          <mxGeometry relative="1" as="geometry" />
        </mxCell>
        <mxCell id="akpch6v7CLm2JDNGrAS8-5" value="6" style="ellipse;whiteSpace=wrap;html=1;aspect=fixed;" vertex="1" parent="1">
          <mxGeometry x="320" y="240" width="40" height="40" as="geometry" />
        </mxCell>
        <mxCell id="akpch6v7CLm2JDNGrAS8-37" style="edgeStyle=orthogonalEdgeStyle;rounded=0;orthogonalLoop=1;jettySize=auto;html=1;exitX=0.5;exitY=1;exitDx=0;exitDy=0;entryX=0.5;entryY=0;entryDx=0;entryDy=0;" edge="1" parent="1" source="akpch6v7CLm2JDNGrAS8-6" target="akpch6v7CLm2JDNGrAS8-11">
          <mxGeometry relative="1" as="geometry" />
        </mxCell>
        <mxCell id="akpch6v7CLm2JDNGrAS8-6" value="89" style="ellipse;whiteSpace=wrap;html=1;aspect=fixed;" vertex="1" parent="1">
          <mxGeometry x="400" y="240" width="40" height="40" as="geometry" />
        </mxCell>
        <mxCell id="akpch6v7CLm2JDNGrAS8-38" style="edgeStyle=orthogonalEdgeStyle;rounded=0;orthogonalLoop=1;jettySize=auto;html=1;exitX=0.5;exitY=1;exitDx=0;exitDy=0;entryX=0.5;entryY=0;entryDx=0;entryDy=0;" edge="1" parent="1" source="akpch6v7CLm2JDNGrAS8-7" target="akpch6v7CLm2JDNGrAS8-12">
          <mxGeometry relative="1" as="geometry" />
        </mxCell>
        <mxCell id="akpch6v7CLm2JDNGrAS8-7" value="5" style="ellipse;whiteSpace=wrap;html=1;aspect=fixed;" vertex="1" parent="1">
          <mxGeometry x="480" y="240" width="40" height="40" as="geometry" />
        </mxCell>
        <mxCell id="akpch6v7CLm2JDNGrAS8-39" style="edgeStyle=orthogonalEdgeStyle;rounded=0;orthogonalLoop=1;jettySize=auto;html=1;exitX=0.5;exitY=1;exitDx=0;exitDy=0;" edge="1" parent="1" source="akpch6v7CLm2JDNGrAS8-8" target="akpch6v7CLm2JDNGrAS8-22">
          <mxGeometry relative="1" as="geometry" />
        </mxCell>
        <mxCell id="akpch6v7CLm2JDNGrAS8-8" value="6" style="ellipse;whiteSpace=wrap;html=1;aspect=fixed;" vertex="1" parent="1">
          <mxGeometry x="560" y="240" width="40" height="40" as="geometry" />
        </mxCell>
        <mxCell id="akpch6v7CLm2JDNGrAS8-40" style="edgeStyle=orthogonalEdgeStyle;rounded=0;orthogonalLoop=1;jettySize=auto;html=1;exitX=0.5;exitY=1;exitDx=0;exitDy=0;" edge="1" parent="1" source="akpch6v7CLm2JDNGrAS8-9" target="akpch6v7CLm2JDNGrAS8-23">
          <mxGeometry relative="1" as="geometry" />
        </mxCell>
        <mxCell id="akpch6v7CLm2JDNGrAS8-41" style="edgeStyle=orthogonalEdgeStyle;rounded=0;orthogonalLoop=1;jettySize=auto;html=1;exitX=1;exitY=0.5;exitDx=0;exitDy=0;" edge="1" parent="1" source="akpch6v7CLm2JDNGrAS8-9" target="akpch6v7CLm2JDNGrAS8-24">
          <mxGeometry relative="1" as="geometry" />
        </mxCell>
        <mxCell id="akpch6v7CLm2JDNGrAS8-9" value="12" style="ellipse;whiteSpace=wrap;html=1;aspect=fixed;" vertex="1" parent="1">
          <mxGeometry x="640" y="240" width="40" height="40" as="geometry" />
        </mxCell>
        <mxCell id="akpch6v7CLm2JDNGrAS8-46" style="edgeStyle=orthogonalEdgeStyle;rounded=0;orthogonalLoop=1;jettySize=auto;html=1;exitX=0.5;exitY=1;exitDx=0;exitDy=0;entryX=0.5;entryY=0;entryDx=0;entryDy=0;" edge="1" parent="1" source="akpch6v7CLm2JDNGrAS8-10" target="akpch6v7CLm2JDNGrAS8-14">
          <mxGeometry relative="1" as="geometry" />
        </mxCell>
        <mxCell id="akpch6v7CLm2JDNGrAS8-10" value="7" style="ellipse;whiteSpace=wrap;html=1;aspect=fixed;" vertex="1" parent="1">
          <mxGeometry x="340" y="320" width="40" height="40" as="geometry" />
        </mxCell>
        <mxCell id="akpch6v7CLm2JDNGrAS8-45" style="edgeStyle=orthogonalEdgeStyle;rounded=0;orthogonalLoop=1;jettySize=auto;html=1;exitX=0.5;exitY=1;exitDx=0;exitDy=0;" edge="1" parent="1" source="akpch6v7CLm2JDNGrAS8-11" target="akpch6v7CLm2JDNGrAS8-15">
          <mxGeometry relative="1" as="geometry" />
        </mxCell>
        <mxCell id="akpch6v7CLm2JDNGrAS8-11" value="12" style="ellipse;whiteSpace=wrap;html=1;aspect=fixed;" vertex="1" parent="1">
          <mxGeometry x="420" y="320" width="40" height="40" as="geometry" />
        </mxCell>
        <mxCell id="akpch6v7CLm2JDNGrAS8-44" style="edgeStyle=orthogonalEdgeStyle;rounded=0;orthogonalLoop=1;jettySize=auto;html=1;exitX=0.5;exitY=1;exitDx=0;exitDy=0;" edge="1" parent="1" source="akpch6v7CLm2JDNGrAS8-12" target="akpch6v7CLm2JDNGrAS8-16">
          <mxGeometry relative="1" as="geometry" />
        </mxCell>
        <mxCell id="akpch6v7CLm2JDNGrAS8-12" value="5" style="ellipse;whiteSpace=wrap;html=1;aspect=fixed;" vertex="1" parent="1">
          <mxGeometry x="500" y="320" width="40" height="40" as="geometry" />
        </mxCell>
        <mxCell id="akpch6v7CLm2JDNGrAS8-13" value="100" style="ellipse;whiteSpace=wrap;html=1;aspect=fixed;strokeColor=#030303;fillColor=#FF5E24;" vertex="1" parent="1">
          <mxGeometry x="200" y="400" width="40" height="40" as="geometry" />
        </mxCell>
        <mxCell id="akpch6v7CLm2JDNGrAS8-14" value="78" style="ellipse;whiteSpace=wrap;html=1;aspect=fixed;" vertex="1" parent="1">
          <mxGeometry x="320" y="400" width="40" height="40" as="geometry" />
        </mxCell>
        <mxCell id="akpch6v7CLm2JDNGrAS8-15" value="34" style="ellipse;whiteSpace=wrap;html=1;aspect=fixed;" vertex="1" parent="1">
          <mxGeometry x="400" y="400" width="40" height="40" as="geometry" />
        </mxCell>
        <mxCell id="akpch6v7CLm2JDNGrAS8-16" value="56" style="ellipse;whiteSpace=wrap;html=1;aspect=fixed;" vertex="1" parent="1">
          <mxGeometry x="500" y="400" width="40" height="40" as="geometry" />
        </mxCell>
        <mxCell id="akpch6v7CLm2JDNGrAS8-17" value="9" style="ellipse;whiteSpace=wrap;html=1;aspect=fixed;" vertex="1" parent="1">
          <mxGeometry x="580" y="400" width="40" height="40" as="geometry" />
        </mxCell>
        <mxCell id="akpch6v7CLm2JDNGrAS8-18" value="-1" style="ellipse;whiteSpace=wrap;html=1;aspect=fixed;" vertex="1" parent="1">
          <mxGeometry x="660" y="400" width="40" height="40" as="geometry" />
        </mxCell>
        <mxCell id="akpch6v7CLm2JDNGrAS8-19" value="1" style="ellipse;whiteSpace=wrap;html=1;aspect=fixed;" vertex="1" parent="1">
          <mxGeometry x="110" y="320" width="40" height="40" as="geometry" />
        </mxCell>
        <mxCell id="akpch6v7CLm2JDNGrAS8-48" style="edgeStyle=orthogonalEdgeStyle;rounded=0;orthogonalLoop=1;jettySize=auto;html=1;exitX=0.5;exitY=1;exitDx=0;exitDy=0;" edge="1" parent="1" source="akpch6v7CLm2JDNGrAS8-20" target="akpch6v7CLm2JDNGrAS8-13">
          <mxGeometry relative="1" as="geometry" />
        </mxCell>
        <mxCell id="akpch6v7CLm2JDNGrAS8-20" value="3" style="ellipse;whiteSpace=wrap;html=1;aspect=fixed;" vertex="1" parent="1">
          <mxGeometry x="190" y="320" width="40" height="40" as="geometry" />
        </mxCell>
        <mxCell id="akpch6v7CLm2JDNGrAS8-21" value="45" style="ellipse;whiteSpace=wrap;html=1;aspect=fixed;" vertex="1" parent="1">
          <mxGeometry x="270" y="320" width="40" height="40" as="geometry" />
        </mxCell>
        <mxCell id="akpch6v7CLm2JDNGrAS8-43" style="edgeStyle=orthogonalEdgeStyle;rounded=0;orthogonalLoop=1;jettySize=auto;html=1;exitX=0.5;exitY=1;exitDx=0;exitDy=0;entryX=0.5;entryY=0;entryDx=0;entryDy=0;" edge="1" parent="1" source="akpch6v7CLm2JDNGrAS8-22" target="akpch6v7CLm2JDNGrAS8-17">
          <mxGeometry relative="1" as="geometry" />
        </mxCell>
        <mxCell id="akpch6v7CLm2JDNGrAS8-22" value="7" style="ellipse;whiteSpace=wrap;html=1;aspect=fixed;" vertex="1" parent="1">
          <mxGeometry x="580" y="320" width="40" height="40" as="geometry" />
        </mxCell>
        <mxCell id="akpch6v7CLm2JDNGrAS8-42" style="edgeStyle=orthogonalEdgeStyle;rounded=0;orthogonalLoop=1;jettySize=auto;html=1;exitX=0.5;exitY=1;exitDx=0;exitDy=0;" edge="1" parent="1" source="akpch6v7CLm2JDNGrAS8-23" target="akpch6v7CLm2JDNGrAS8-18">
          <mxGeometry relative="1" as="geometry" />
        </mxCell>
        <mxCell id="akpch6v7CLm2JDNGrAS8-23" value="11" style="ellipse;whiteSpace=wrap;html=1;aspect=fixed;" vertex="1" parent="1">
          <mxGeometry x="660" y="320" width="40" height="40" as="geometry" />
        </mxCell>
        <mxCell id="akpch6v7CLm2JDNGrAS8-24" value="12" style="ellipse;whiteSpace=wrap;html=1;aspect=fixed;" vertex="1" parent="1">
          <mxGeometry x="740" y="320" width="40" height="40" as="geometry" />
        </mxCell>
      </root>
    </mxGraphModel>
  </diagram>
</mxfile>
